<svg xmlns="http://www.w3.org/2000/svg" xmlns:xlink="http://www.w3.org/1999/xlink" width="500" zoomAndPan="magnify" viewBox="0 0 375 374.999991" height="500" preserveAspectRatio="xMidYMid meet" version="1.0"><defs><g/><clipPath id="20247e5390"><path d="M 159 136 L 219 136 L 219 209 L 159 209 Z M 159 136 " clip-rule="nonzero"/></clipPath><clipPath id="4a0f847e74"><path d="M 203.316406 136.140625 L 218.214844 146.550781 L 174.785156 208.695312 L 159.886719 198.285156 Z M 203.316406 136.140625 " clip-rule="nonzero"/></clipPath><clipPath id="9b659ebbb6"><path d="M 188 153 L 221 153 L 221 186 L 188 186 Z M 188 153 " clip-rule="nonzero"/></clipPath><clipPath id="84ccada905"><path d="M 199.753906 153.496094 L 220.957031 166.292969 L 209.308594 185.589844 L 188.105469 172.792969 Z M 199.753906 153.496094 " clip-rule="nonzero"/></clipPath></defs><rect x="-37.5" width="450" fill="#ffffff" y="-37.499999" height="449.999989" fill-opacity="1"/><rect x="-37.5" width="450" fill="#ffffff" y="-37.499999" height="449.999989" fill-opacity="1"/><path stroke-linecap="butt" transform="matrix(0.966429, 0, 0, 0.966429, -1.463014, 266.257307)" fill="none" stroke-linejoin="miter" d="M 81.511951 22.999173 L 77.995462 22.999173 L 77.975252 12.825605 L 74.220288 21.434941 L 71.625361 21.434941 L 67.870397 12.825605 L 67.870397 22.999173 L 64.31753 22.999173 L 64.31753 7.328564 L 68.674743 7.328564 L 72.926866 16.649282 L 77.170905 7.328564 L 81.511951 7.328564 Z M 104.005358 20.117268 L 97.162351 20.117268 L 96.022523 22.999173 L 91.932078 22.999173 L 98.686163 7.348773 L 102.776608 7.348773 L 109.369015 22.999173 L 105.120934 22.999173 Z M 102.841279 17.097937 L 100.606085 11.305835 L 98.32643 17.097937 Z M 127.84069 17.946745 L 127.84069 22.999173 L 123.883629 22.999173 L 123.883629 18.05992 L 118.095568 7.348773 L 122.076881 7.348773 L 125.852055 14.167529 L 129.542348 7.348773 L 133.523661 7.348773 Z M 154.31541 20.117268 L 147.476445 20.117268 L 146.336617 22.999173 L 142.246172 22.999173 L 149.000257 7.348773 L 153.08666 7.348773 L 159.683109 22.999173 L 155.435028 22.999173 Z M 153.155373 17.097937 L 150.920179 11.305835 L 148.640524 17.097937 Z M 184.528927 22.999173 L 181.020521 22.999173 L 173.817781 13.363183 L 173.817781 22.999173 L 170.087068 22.999173 L 170.087068 7.348773 L 173.595474 7.348773 L 180.818424 17.004973 L 180.818424 7.348773 L 184.528927 7.348773 Z M 206.795985 22.999173 L 202.665121 16.851379 L 200.583521 19.151244 L 200.583521 22.999173 L 196.60625 22.999173 L 196.60625 7.348773 L 200.583521 7.348773 L 200.583521 14.123068 L 206.577721 7.348773 L 211.181492 7.348773 L 205.36918 13.83609 L 211.561435 22.999173 Z M 246.782918 15.040589 L 250.226652 15.040589 L 250.226652 21.143921 C 249.377844 21.742129 248.355233 22.231204 247.150734 22.611146 C 245.950278 22.991089 244.806408 23.18106 243.719126 23.18106 C 241.33438 23.18106 239.345744 22.417133 237.745135 20.889279 C 236.15261 19.357383 235.356348 17.453628 235.356348 15.169931 C 235.356348 12.906444 236.17282 11.014815 237.813848 9.495044 C 239.454877 7.971232 241.512225 7.211347 243.985894 7.211347 C 245.149973 7.211347 246.305968 7.421528 247.45388 7.84189 C 248.601792 8.25821 249.579941 8.824082 250.384288 9.539506 L 248.145052 12.247607 C 247.583222 11.722155 246.928428 11.309876 246.180668 11.006731 C 245.432909 10.699543 244.697276 10.549991 243.965684 10.549991 C 242.684388 10.549991 241.60519 10.990563 240.73213 11.87979 C 239.863113 12.764976 239.426583 13.860342 239.426583 15.169931 C 239.426583 16.49973 239.867155 17.611264 240.744256 18.508575 C 241.6254 19.397802 242.712682 19.846458 244.006103 19.846458 C 244.846827 19.846458 245.76839 19.591816 246.782918 19.086573 Z M 272.340117 20.117268 L 265.501151 20.117268 L 264.357281 22.999173 L 260.270878 22.999173 L 267.024963 7.348773 L 271.111367 7.348773 L 277.707816 22.999173 L 273.459735 22.999173 Z M 271.176038 17.097937 L 268.944886 11.305835 L 266.661188 17.097937 Z M 297.541625 22.999173 L 295.217509 18.593456 L 292.089046 18.593456 L 292.089046 22.999173 L 288.107733 22.999173 L 288.107733 7.348773 L 295.108376 7.348773 C 297.17785 7.348773 298.77846 7.821681 299.910203 8.767495 C 301.045989 9.713309 301.615903 11.059276 301.615903 12.801353 C 301.615903 15.218434 300.670088 16.89584 298.774418 17.837613 L 302.060516 22.999173 Z M 292.089046 15.464993 L 295.108376 15.464993 C 295.96931 15.464993 296.640272 15.25077 297.117221 14.818282 C 297.594171 14.385794 297.832645 13.759293 297.832645 12.938779 C 297.832645 12.134433 297.594171 11.524099 297.117221 11.103737 C 296.640272 10.687417 295.96931 10.477236 295.108376 10.477236 L 292.089046 10.477236 Z M 323.636403 15.040589 L 327.080137 15.040589 L 327.080137 21.143921 C 326.235372 21.742129 325.208718 22.231204 324.008261 22.611146 C 322.807805 22.991089 321.663935 23.18106 320.572611 23.18106 C 318.191907 23.18106 316.19923 22.417133 314.602662 20.889279 C 313.010137 19.357383 312.209833 17.453628 312.209833 15.169931 C 312.209833 12.906444 313.030347 11.014815 314.667334 9.495044 C 316.308362 7.971232 318.36571 7.211347 320.843421 7.211347 C 322.0075 7.211347 323.163496 7.421528 324.307365 7.84189 C 325.459319 8.25821 326.437469 8.824082 327.241815 9.539506 L 325.002579 12.247607 C 324.436707 11.722155 323.781913 11.309876 323.038195 11.006731 C 322.290436 10.699543 321.550761 10.549991 320.819169 10.549991 C 319.537874 10.549991 318.462717 10.990563 317.589658 11.87979 C 316.716598 12.764976 316.28411 13.860342 316.28411 15.169931 C 316.28411 16.49973 316.72064 17.611264 317.597741 18.508575 C 318.478885 19.397802 319.566167 19.846458 320.863631 19.846458 C 321.700313 19.846458 322.625917 19.591816 323.636403 19.086573 Z M 323.636403 15.040589 " stroke="#3d3b3a" stroke-width="0.83868" stroke-opacity="1" stroke-miterlimit="4"/><g fill="#3d3b3a" fill-opacity="1"><g transform="translate(59.180406, 288.485175)"><g><path d="M 18.125 0 L 14.734375 0 L 14.71875 -9.828125 L 11.078125 -1.515625 L 8.578125 -1.515625 L 4.953125 -9.828125 L 4.953125 0 L 1.515625 0 L 1.515625 -15.140625 L 5.71875 -15.140625 L 9.828125 -6.140625 L 13.9375 -15.140625 L 18.125 -15.140625 Z M 18.125 0 "/></g></g></g><g fill="#3d3b3a" fill-opacity="1"><g transform="translate(87.489963, 288.485175)"><g><path d="M 11.5625 -2.78125 L 4.953125 -2.78125 L 3.84375 0 L -0.109375 0 L 6.421875 -15.125 L 10.375 -15.125 L 16.75 0 L 12.640625 0 Z M 10.4375 -5.703125 L 8.28125 -11.296875 L 6.078125 -5.703125 Z M 10.4375 -5.703125 "/></g></g></g><g fill="#3d3b3a" fill-opacity="1"><g transform="translate(112.774297, 288.485175)"><g><path d="M 9.3125 -4.890625 L 9.3125 0 L 5.484375 0 L 5.484375 -4.78125 L -0.109375 -15.125 L 3.734375 -15.125 L 7.390625 -8.53125 L 10.953125 -15.125 L 14.796875 -15.125 Z M 9.3125 -4.890625 "/></g></g></g><g fill="#3d3b3a" fill-opacity="1"><g transform="translate(136.113839, 288.485175)"><g><path d="M 11.5625 -2.78125 L 4.953125 -2.78125 L 3.84375 0 L -0.109375 0 L 6.421875 -15.125 L 10.375 -15.125 L 16.75 0 L 12.640625 0 Z M 10.4375 -5.703125 L 8.28125 -11.296875 L 6.078125 -5.703125 Z M 10.4375 -5.703125 "/></g></g></g><g fill="#3d3b3a" fill-opacity="1"><g transform="translate(161.398176, 288.485175)"><g><path d="M 15.46875 0 L 12.078125 0 L 5.125 -9.3125 L 5.125 0 L 1.515625 0 L 1.515625 -15.125 L 4.90625 -15.125 L 11.890625 -5.796875 L 11.890625 -15.125 L 15.46875 -15.125 Z M 15.46875 0 "/></g></g></g><g fill="#3d3b3a" fill-opacity="1"><g transform="translate(187.028246, 288.485175)"><g><path d="M 11.359375 0 L 7.375 -5.9375 L 5.359375 -3.71875 L 5.359375 0 L 1.515625 0 L 1.515625 -15.125 L 5.359375 -15.125 L 5.359375 -8.578125 L 11.15625 -15.125 L 15.609375 -15.125 L 9.984375 -8.859375 L 15.96875 0 Z M 11.359375 0 "/></g></g></g><g fill="#3d3b3a" fill-opacity="1"><g transform="translate(211.815581, 288.485175)"><g/></g></g><g fill="#3d3b3a" fill-opacity="1"><g transform="translate(225.474413, 288.485175)"><g><path d="M 11.5625 -7.6875 L 14.890625 -7.6875 L 14.890625 -1.796875 C 14.066406 -1.210938 13.070312 -0.738281 11.90625 -0.375 C 10.75 -0.0078125 9.644531 0.171875 8.59375 0.171875 C 6.289062 0.171875 4.367188 -0.5625 2.828125 -2.03125 C 1.285156 -3.507812 0.515625 -5.351562 0.515625 -7.5625 C 0.515625 -9.75 1.304688 -11.578125 2.890625 -13.046875 C 4.472656 -14.515625 6.460938 -15.25 8.859375 -15.25 C 9.984375 -15.25 11.097656 -15.046875 12.203125 -14.640625 C 13.316406 -14.242188 14.265625 -13.703125 15.046875 -13.015625 L 12.875 -10.390625 C 12.332031 -10.898438 11.695312 -11.300781 10.96875 -11.59375 C 10.25 -11.882812 9.539062 -12.03125 8.84375 -12.03125 C 7.601562 -12.03125 6.5625 -11.601562 5.71875 -10.75 C 4.875 -9.894531 4.453125 -8.832031 4.453125 -7.5625 C 4.453125 -6.28125 4.875 -5.207031 5.71875 -4.34375 C 6.570312 -3.476562 7.625 -3.046875 8.875 -3.046875 C 9.6875 -3.046875 10.582031 -3.289062 11.5625 -3.78125 Z M 11.5625 -7.6875 "/></g></g></g><g fill="#3d3b3a" fill-opacity="1"><g transform="translate(250.175303, 288.485175)"><g><path d="M 11.5625 -2.78125 L 4.953125 -2.78125 L 3.84375 0 L -0.109375 0 L 6.421875 -15.125 L 10.375 -15.125 L 16.75 0 L 12.640625 0 Z M 10.4375 -5.703125 L 8.28125 -11.296875 L 6.078125 -5.703125 Z M 10.4375 -5.703125 "/></g></g></g><g fill="#3d3b3a" fill-opacity="1"><g transform="translate(275.45964, 288.485175)"><g><path d="M 10.625 0 L 8.390625 -4.25 L 5.359375 -4.25 L 5.359375 0 L 1.515625 0 L 1.515625 -15.125 L 8.28125 -15.125 C 10.28125 -15.125 11.828125 -14.664062 12.921875 -13.75 C 14.015625 -12.832031 14.5625 -11.535156 14.5625 -9.859375 C 14.5625 -7.523438 13.644531 -5.898438 11.8125 -4.984375 L 15 0 Z M 5.359375 -7.28125 L 8.28125 -7.28125 C 9.113281 -7.28125 9.757812 -7.488281 10.21875 -7.90625 C 10.675781 -8.320312 10.90625 -8.925781 10.90625 -9.71875 C 10.90625 -10.5 10.675781 -11.085938 10.21875 -11.484375 C 9.757812 -11.890625 9.113281 -12.09375 8.28125 -12.09375 L 5.359375 -12.09375 Z M 5.359375 -7.28125 "/></g></g></g><g fill="#3d3b3a" fill-opacity="1"><g transform="translate(299.749972, 288.485175)"><g><path d="M 11.5625 -7.6875 L 14.890625 -7.6875 L 14.890625 -1.796875 C 14.066406 -1.210938 13.070312 -0.738281 11.90625 -0.375 C 10.75 -0.0078125 9.644531 0.171875 8.59375 0.171875 C 6.289062 0.171875 4.367188 -0.5625 2.828125 -2.03125 C 1.285156 -3.507812 0.515625 -5.351562 0.515625 -7.5625 C 0.515625 -9.75 1.304688 -11.578125 2.890625 -13.046875 C 4.472656 -14.515625 6.460938 -15.25 8.859375 -15.25 C 9.984375 -15.25 11.097656 -15.046875 12.203125 -14.640625 C 13.316406 -14.242188 14.265625 -13.703125 15.046875 -13.015625 L 12.875 -10.390625 C 12.332031 -10.898438 11.695312 -11.300781 10.96875 -11.59375 C 10.25 -11.882812 9.539062 -12.03125 8.84375 -12.03125 C 7.601562 -12.03125 6.5625 -11.601562 5.71875 -10.75 C 4.875 -9.894531 4.453125 -8.832031 4.453125 -7.5625 C 4.453125 -6.28125 4.875 -5.207031 5.71875 -4.34375 C 6.570312 -3.476562 7.625 -3.046875 8.875 -3.046875 C 9.6875 -3.046875 10.582031 -3.289062 11.5625 -3.78125 Z M 11.5625 -7.6875 "/></g></g></g><path stroke-linecap="butt" transform="matrix(0.966429, 0, 0, 0.966429, 119.710734, 70.590163)" fill="none" stroke-linejoin="miter" d="M 89.250332 107.717424 C 89.387758 107.717424 89.456471 107.935688 89.456471 108.372218 C 89.456471 108.79258 89.387758 108.998719 89.250332 108.998719 C 86.825166 108.998719 84.89716 108.966384 83.466313 108.893629 L 75.540064 108.79258 L 67.484474 108.893629 C 66.142549 108.966384 64.287298 108.998719 61.914678 108.998719 C 61.704497 108.998719 61.599406 108.79258 61.599406 108.372218 C 61.599406 107.935688 61.704497 107.717424 61.914678 107.717424 C 64.929967 107.717424 66.971147 107.361733 68.034178 106.646309 C 69.097209 105.930885 69.630745 104.431325 69.630745 102.147628 L 69.525655 100.316628 L 67.278335 56.501977 L 45.225499 108.242876 C 45.067864 108.537938 44.780886 108.68749 44.364566 108.68749 C 43.928036 108.68749 43.637016 108.537938 43.49959 108.242876 L 16.402411 56.712157 L 15.537435 95.397584 C 15.468722 99.253597 16.236691 102.268886 17.8373 104.447493 C 19.441951 106.630141 21.709481 107.717424 24.639889 107.717424 C 24.85007 107.717424 24.95516 107.935688 24.95516 108.372218 C 24.95516 108.79258 24.85007 108.998719 24.639889 108.998719 C 22.703799 108.998719 21.204238 108.966384 20.141207 108.893629 L 14.25614 108.79258 L 7.506097 108.893629 C 6.358185 108.966384 4.822247 108.998719 2.902325 108.998719 C 2.675976 108.998719 2.562802 108.79258 2.562802 108.372218 C 2.562802 107.935688 2.675976 107.717424 2.902325 107.717424 C 5.832733 107.717424 8.152807 106.609931 9.862549 104.394947 C 11.568248 102.179963 12.461518 99.180842 12.530231 95.397584 L 13.496255 51.037271 L 13.391164 50.93218 C 11.964359 48.280666 10.480966 46.35266 8.945028 45.152203 C 7.413132 43.931537 5.642761 43.321204 3.633916 43.321204 C 3.427777 43.321204 3.322687 43.111023 3.322687 42.690661 C 3.322687 42.254131 3.427777 42.035866 3.633916 42.035866 L 8.682302 42.140957 C 9.676619 42.213712 10.957915 42.246047 12.530231 42.246047 L 18.205117 42.140957 C 18.851828 42.072244 19.680426 42.035866 20.690911 42.035866 C 21.616516 42.035866 22.319814 42.359221 22.808889 43.005932 C 23.314132 43.648601 24.24782 45.184539 25.605913 47.609704 L 48.968338 91.424355 L 69.315474 44.703548 C 69.752003 43.713272 70.196617 43.0221 70.649315 42.638115 C 71.122222 42.237963 71.748723 42.035866 72.53286 42.035866 C 73.17957 42.035866 73.911162 42.072244 74.731676 42.140957 C 75.55219 42.213712 76.493963 42.246047 77.556993 42.246047 L 83.886675 42.140957 C 84.89716 42.072244 86.328008 42.035866 88.175175 42.035866 C 88.385356 42.035866 88.490447 42.254131 88.490447 42.690661 C 88.490447 43.111023 88.385356 43.321204 88.175175 43.321204 C 84.812279 43.321204 82.37903 44.00025 80.87947 45.358342 C 79.379909 46.720477 78.708947 48.830371 78.862541 51.688024 L 81.429174 100.316628 C 81.5666 102.531612 81.829326 104.144347 82.213311 105.154832 C 82.613463 106.14915 83.328887 106.828196 84.35554 107.196013 C 85.402403 107.54362 87.035347 107.717424 89.250332 107.717424 Z M 89.250332 107.717424 " stroke="#3d3b3a" stroke-width="4.017862" stroke-opacity="1" stroke-miterlimit="4"/><g fill="#3d3b3a" fill-opacity="1"><g transform="translate(119.710734, 175.930925)"><g><path d="M 86.25 -1.25 C 86.394531 -1.25 86.46875 -1.039062 86.46875 -0.625 C 86.46875 -0.207031 86.394531 0 86.25 0 C 83.90625 0 82.039062 -0.0351562 80.65625 -0.109375 L 73 -0.203125 L 65.234375 -0.109375 C 63.921875 -0.0351562 62.125 0 59.84375 0 C 59.644531 0 59.546875 -0.207031 59.546875 -0.625 C 59.546875 -1.039062 59.644531 -1.25 59.84375 -1.25 C 62.75 -1.25 64.71875 -1.59375 65.75 -2.28125 C 66.789062 -2.96875 67.3125 -4.414062 67.3125 -6.625 L 67.203125 -8.390625 L 65.03125 -50.734375 L 43.703125 -0.71875 C 43.554688 -0.445312 43.28125 -0.3125 42.875 -0.3125 C 42.457031 -0.3125 42.179688 -0.445312 42.046875 -0.71875 L 15.84375 -50.53125 L 15.015625 -13.15625 C 14.941406 -9.425781 15.679688 -6.507812 17.234375 -4.40625 C 18.796875 -2.300781 20.988281 -1.25 23.8125 -1.25 C 24.019531 -1.25 24.125 -1.039062 24.125 -0.625 C 24.125 -0.207031 24.019531 0 23.8125 0 C 21.945312 0 20.5 -0.0351562 19.46875 -0.109375 L 13.765625 -0.203125 L 7.25 -0.109375 C 6.144531 -0.0351562 4.660156 0 2.796875 0 C 2.585938 0 2.484375 -0.207031 2.484375 -0.625 C 2.484375 -1.039062 2.585938 -1.25 2.796875 -1.25 C 5.628906 -1.25 7.875 -2.316406 9.53125 -4.453125 C 11.1875 -6.585938 12.046875 -9.488281 12.109375 -13.15625 L 13.046875 -56.015625 L 12.9375 -56.125 C 11.5625 -58.675781 10.128906 -60.535156 8.640625 -61.703125 C 7.160156 -62.878906 5.453125 -63.46875 3.515625 -63.46875 C 3.304688 -63.46875 3.203125 -63.675781 3.203125 -64.09375 C 3.203125 -64.507812 3.304688 -64.71875 3.515625 -64.71875 L 8.390625 -64.609375 C 9.359375 -64.546875 10.597656 -64.515625 12.109375 -64.515625 L 17.609375 -64.609375 C 18.222656 -64.679688 19.015625 -64.71875 19.984375 -64.71875 C 20.878906 -64.71875 21.566406 -64.40625 22.046875 -63.78125 C 22.535156 -63.164062 23.4375 -61.679688 24.75 -59.328125 L 47.328125 -16.984375 L 67 -62.125 C 67.40625 -63.09375 67.832031 -63.765625 68.28125 -64.140625 C 68.738281 -64.523438 69.34375 -64.71875 70.09375 -64.71875 C 70.71875 -64.71875 71.425781 -64.679688 72.21875 -64.609375 C 73.019531 -64.546875 73.9375 -64.515625 74.96875 -64.515625 L 81.078125 -64.609375 C 82.046875 -64.679688 83.425781 -64.71875 85.21875 -64.71875 C 85.425781 -64.71875 85.53125 -64.507812 85.53125 -64.09375 C 85.53125 -63.675781 85.425781 -63.46875 85.21875 -63.46875 C 81.976562 -63.46875 79.628906 -62.8125 78.171875 -61.5 C 76.722656 -60.195312 76.066406 -58.160156 76.203125 -55.390625 L 78.703125 -8.390625 C 78.835938 -6.242188 79.09375 -4.6875 79.46875 -3.71875 C 79.851562 -2.757812 80.546875 -2.109375 81.546875 -1.765625 C 82.546875 -1.421875 84.113281 -1.25 86.25 -1.25 Z M 86.25 -1.25 "/></g></g></g><path stroke-linecap="butt" transform="matrix(0.966429, 0, 0, 0.966429, 163.566805, 121.154471)" fill="none" stroke-linejoin="miter" d="M 56.469559 110.282186 C 48.325046 110.282186 41.255689 108.766458 35.257448 105.730959 C 29.259206 102.695461 24.655434 98.57268 21.446132 93.358575 C 18.23683 88.14447 16.632179 82.356409 16.632179 75.99035 C 16.632179 69.207971 18.426801 63.136975 22.020087 57.785443 C 25.629542 52.42987 30.609214 48.270712 36.955063 45.307968 C 43.321122 42.341183 50.471317 40.861832 58.405649 40.861832 C 61.8413 40.861832 65.268867 41.132642 68.684308 41.670221 C 72.119959 42.195673 74.876563 42.890887 76.950079 43.763947 C 77.734216 44.042841 78.17883 44.269189 78.28392 44.442993 C 78.389011 44.616796 78.477933 45.210962 78.546646 46.221447 L 79.933032 61.10792 C 79.933032 61.314059 79.730935 61.463611 79.330783 61.552533 C 78.946799 61.621246 78.72045 61.508072 78.651737 61.208968 C 77.726132 58.856558 76.226572 56.293967 74.153055 53.521195 C 72.075497 50.732255 69.35527 48.299006 65.992374 46.221447 C 62.641605 44.147931 58.753256 43.109152 54.323288 43.109152 C 49.755893 43.109152 45.580567 44.366196 41.79731 46.876242 C 38.01001 49.37012 35.031099 52.935113 32.84845 57.575262 C 30.669843 62.215412 29.578519 67.603321 29.578519 73.738988 C 29.578519 80.452654 30.843647 86.463022 33.373903 91.762008 C 35.920326 97.044826 39.440857 101.151439 43.939539 104.081847 C 48.43822 107.012255 53.5149 108.475438 59.165534 108.475438 C 62.0919 108.475438 64.343262 108.156125 65.911536 107.509414 C 67.483851 106.862703 68.623679 105.617785 69.339102 103.766576 C 70.054526 101.90324 70.410217 99.146636 70.410217 95.504846 C 70.410217 91.790301 70.191952 89.199417 69.759464 87.732192 C 69.339102 86.269009 68.433707 85.290859 67.039237 84.805826 C 65.640726 84.300583 63.191309 84.045941 59.686945 84.045941 C 59.270625 84.045941 59.060444 83.758963 59.060444 83.180965 C 59.060444 82.974826 59.112989 82.780813 59.21808 82.607009 C 59.32317 82.417038 59.444428 82.320031 59.581854 82.320031 C 65.652851 82.687848 70.575937 82.869735 74.363236 82.869735 C 78.005026 82.869735 81.80041 82.756561 85.741303 82.530212 C 86.020197 82.530212 86.177833 82.780813 86.210168 83.286055 C 86.246546 83.791298 86.08891 84.045941 85.741303 84.045941 C 84.447882 83.977228 83.534403 84.21166 82.992783 84.75328 C 82.451162 85.274691 82.111639 86.357931 81.974213 87.994918 C 81.832745 89.635946 81.764032 92.493599 81.764032 96.575961 C 81.764032 99.785263 81.88529 102.06896 82.131849 103.427052 C 82.390533 104.789187 82.523917 105.642037 82.523917 105.993686 C 82.523917 106.426173 82.443078 106.717193 82.285443 106.854619 C 82.148017 106.996087 81.832745 107.133513 81.34367 107.274981 C 72.119959 109.279784 63.829936 110.282186 56.469559 110.282186 Z M 56.469559 110.282186 " stroke="#3d3b3a" stroke-width="4.017862" stroke-opacity="1" stroke-miterlimit="4"/><g fill="#3d3b3a" fill-opacity="1"><g transform="translate(174.559935, 226.495233)"><g><path d="M 43.59375 1.25 C 35.71875 1.25 28.878906 -0.21875 23.078125 -3.15625 C 17.285156 -6.09375 12.835938 -10.078125 9.734375 -15.109375 C 6.628906 -20.148438 5.078125 -25.742188 5.078125 -31.890625 C 5.078125 -38.453125 6.816406 -44.320312 10.296875 -49.5 C 13.785156 -54.675781 18.601562 -58.695312 24.75 -61.5625 C 30.894531 -64.425781 37.796875 -65.859375 45.453125 -65.859375 C 48.765625 -65.859375 52.078125 -65.597656 55.390625 -65.078125 C 58.710938 -64.554688 61.375 -63.882812 63.375 -63.0625 C 64.132812 -62.78125 64.566406 -62.550781 64.671875 -62.375 C 64.773438 -62.207031 64.859375 -61.640625 64.921875 -60.671875 L 66.265625 -46.28125 C 66.265625 -46.070312 66.070312 -45.929688 65.6875 -45.859375 C 65.3125 -45.796875 65.09375 -45.90625 65.03125 -46.1875 C 64.132812 -48.457031 62.679688 -50.9375 60.671875 -53.625 C 58.671875 -56.320312 56.046875 -58.671875 52.796875 -60.671875 C 49.554688 -62.679688 45.796875 -63.6875 41.515625 -63.6875 C 37.097656 -63.6875 33.0625 -62.476562 29.40625 -60.0625 C 25.75 -57.644531 22.867188 -54.191406 20.765625 -49.703125 C 18.660156 -45.210938 17.609375 -40 17.609375 -34.0625 C 17.609375 -27.570312 18.832031 -21.773438 21.28125 -16.671875 C 23.726562 -11.566406 27.125 -7.597656 31.46875 -4.765625 C 35.820312 -1.929688 40.726562 -0.515625 46.1875 -0.515625 C 49.007812 -0.515625 51.179688 -0.820312 52.703125 -1.4375 C 54.222656 -2.0625 55.328125 -3.269531 56.015625 -5.0625 C 56.703125 -6.863281 57.046875 -9.523438 57.046875 -13.046875 C 57.046875 -16.640625 56.835938 -19.140625 56.421875 -20.546875 C 56.015625 -21.960938 55.132812 -22.910156 53.78125 -23.390625 C 52.4375 -23.878906 50.078125 -24.125 46.703125 -24.125 C 46.285156 -24.125 46.078125 -24.398438 46.078125 -24.953125 C 46.078125 -25.160156 46.128906 -25.347656 46.234375 -25.515625 C 46.335938 -25.691406 46.457031 -25.78125 46.59375 -25.78125 C 52.457031 -25.4375 57.222656 -25.265625 60.890625 -25.265625 C 64.410156 -25.265625 68.066406 -25.367188 71.859375 -25.578125 C 72.140625 -25.578125 72.296875 -25.332031 72.328125 -24.84375 C 72.359375 -24.363281 72.203125 -24.125 71.859375 -24.125 C 70.617188 -24.195312 69.738281 -23.972656 69.21875 -23.453125 C 68.695312 -22.929688 68.367188 -21.875 68.234375 -20.28125 C 68.097656 -18.695312 68.03125 -15.941406 68.03125 -12.015625 C 68.03125 -8.910156 68.148438 -6.703125 68.390625 -5.390625 C 68.628906 -4.078125 68.75 -3.25 68.75 -2.90625 C 68.75 -2.488281 68.679688 -2.207031 68.546875 -2.0625 C 68.410156 -1.925781 68.097656 -1.789062 67.609375 -1.65625 C 58.710938 0.28125 50.707031 1.25 43.59375 1.25 Z M 43.59375 1.25 "/></g></g></g><g clip-path="url(#20247e5390)"><g clip-path="url(#4a0f847e74)"><path fill="#ffffff" d="M 203.316406 136.140625 L 218.214844 146.550781 L 174.78125 208.699219 L 159.886719 198.289062 Z M 203.316406 136.140625 " fill-opacity="1" fill-rule="nonzero"/></g></g><g clip-path="url(#9b659ebbb6)"><g clip-path="url(#84ccada905)"><path fill="#ffffff" d="M 199.753906 153.496094 L 220.933594 166.28125 L 209.289062 185.578125 L 188.105469 172.792969 Z M 199.753906 153.496094 " fill-opacity="1" fill-rule="nonzero"/></g></g><path stroke-linecap="butt" transform="matrix(0.431053, -0.613753, 0.613753, 0.431053, 155.110658, 217.196602)" fill="none" stroke-linejoin="miter" d="M -0.000649098 1.500395 L 150.617471 1.502627 " stroke="#3d3b3a" stroke-width="3" stroke-opacity="1" stroke-miterlimit="4"/></svg>